<?xml version="1.0" standalone="no"?>
<!DOCTYPE svg PUBLIC "-//W3C//DTD SVG 20010904//EN"
 "http://www.w3.org/TR/2001/REC-SVG-20010904/DTD/svg10.dtd">
<svg version="1.0" xmlns="http://www.w3.org/2000/svg"
 width="32.000000pt" height="32.000000pt" viewBox="0 0 128.000000 128.000000"
 preserveAspectRatio="xMidYMid meet" overflow="visible">
<metadata>
Created by potrace 1.16, written by Peter Selinger 2001-2019
</metadata>
<g transform="translate(0.000000,128.000000) scale(0.100000,-0.100000)"
fill="#666" stroke="none">
<path d="M82 1054 c-22 -15 -30 -58 -14 -80 4 -5 37 -32 75 -58 37 -26 67 -50
67 -53 0 -3 -23 -30 -50 -60 -65 -71 -84 -107 -84 -163 0 -62 22 -98 117 -197
248 -259 490 -299 758 -127 25 16 27 15 111 -45 51 -35 97 -61 112 -61 35 0
58 26 54 63 -3 28 -43 59 -493 374 -685 480 -613 435 -653 407z m410 -384 c25
-16 38 -33 38 -47 0 -13 13 -37 29 -55 25 -28 36 -33 78 -34 53 0 127 -36 120
-58 -2 -6 -28 -19 -59 -29 -53 -18 -60 -18 -111 -3 -97 28 -169 134 -152 223
3 19 9 33 13 31 4 -2 24 -14 44 -28z"/>
<path d="M520 1055 c-30 -9 -62 -23 -72 -32 -27 -24 -23 -69 7 -89 24 -15 29
-15 81 1 40 13 76 16 128 13 109 -7 194 -55 324 -184 57 -57 102 -110 102
-120 0 -11 -9 -30 -20 -44 -54 -69 21 -150 80 -87 55 57 69 142 36 206 -28 53
-173 198 -252 251 -40 26 -99 58 -131 70 -76 29 -207 36 -283 15z"/>
</g>
</svg>
