<?xml version="1.0" standalone="no"?>
<!DOCTYPE svg PUBLIC "-//W3C//DTD SVG 20010904//EN"
 "http://www.w3.org/TR/2001/REC-SVG-20010904/DTD/svg10.dtd">
<svg version="1.0" xmlns="http://www.w3.org/2000/svg"
 width="32.000000pt" height="32.000000pt" viewBox="0 0 128.000000 128.000000"
 preserveAspectRatio="xMidYMid meet">
<metadata>
Created by potrace 1.16, written by Peter Selinger 2001-2019
</metadata>
<g transform="translate(0.000000,128.000000) scale(0.100000,-0.100000)"
fill="#ccc" stroke="none">
<path d="M523 1055 c-113 -31 -221 -104 -335 -223 -90 -95 -112 -131 -112
-192 0 -62 22 -98 117 -197 89 -93 195 -169 284 -204 83 -33 243 -33 326 0 89
35 195 111 284 204 95 99 117 135 117 197 0 62 -22 98 -117 197 -90 94 -196
170 -284 203 -75 29 -207 36 -280 15z m223 -240 c133 -78 131 -273 -4 -352
-179 -105 -385 99 -279 279 60 102 180 133 283 73z"/>
<path d="M630 720 c0 -38 -32 -70 -70 -70 -26 0 -30 -4 -30 -26 0 -16 13 -39
34 -60 28 -28 42 -34 76 -34 34 0 48 6 76 34 28 28 34 42 34 76 0 34 -6 48
-34 76 -21 21 -44 34 -60 34 -22 0 -26 -4 -26 -30z"/>
</g>
</svg>
